<?xml version="1.0" encoding="utf-8"?>
<!-- Generator: Adobe Illustrator 25.0.0, SVG Export Plug-In . SVG Version: 6.00 Build 0)  -->
<svg version="1.1" id="Layer_3" xmlns="http://www.w3.org/2000/svg" xmlns:xlink="http://www.w3.org/1999/xlink" x="0px" y="0px"
	 viewBox="0 0 176.7 42" style="enable-background:new 0 0 176.7 42;" xml:space="preserve">
<style type="text/css">
	.st0{fill:#FFFFFF;}
</style>
<g>
	<path class="st0" d="M22,16.3c0,2.9-1.1,5-3.4,6.4c-1.7,1.1-4.2,1.6-7.4,1.6c-0.4,0-0.9,0-1.6,0c-0.7,0-1.3,0-1.6,0v7.3
		c0,1.6,0.2,2.6,0.7,2.9c0.4,0.3,1.2,0.6,2.5,0.8c0.4,0.1,0.6,0.2,0.6,0.5c0,0.3-0.2,0.4-0.6,0.4H0.7c-0.4,0-0.6-0.1-0.6-0.4
		c0-0.3,0.2-0.5,0.6-0.5c1.1-0.2,1.9-0.5,2.3-0.9C3.5,34,3.8,33,3.8,31.5V13.7c0-1.4-0.3-2.4-0.8-2.9c-0.2-0.3-1.1-0.5-2.5-0.8
		C0.2,9.9,0,9.7,0,9.3C0,9,0.2,8.9,0.5,8.9h10.7c2.9,0,5.3,0.5,7.2,1.5C20.8,11.7,22,13.7,22,16.3z M17.5,16.4c0-4-2.6-6-7.7-6
		c-0.7,0-1.2,0.1-1.4,0.2c-0.3,0.2-0.5,0.6-0.5,1.2v10.7c1.1,0.1,1.8,0.2,2.1,0.2c2,0,3.5-0.3,4.5-0.8
		C16.5,20.9,17.5,19.1,17.5,16.4z"/>
	<path class="st0" d="M46,26c0,3.2-1.1,5.8-3.2,7.8c-2.1,2.1-4.7,3.1-7.8,3.1c-3.3,0-5.9-1.1-8-3.2c-2.1-2.2-3.1-4.9-3.1-8.3
		c0-3.1,1-5.8,3.1-7.8c2.1-2.1,4.7-3.1,7.9-3.1c3.4,0,6.1,1.1,8.1,3.2C45,19.8,46,22.5,46,26z M41.3,27.1c0-0.4,0-0.8,0-1.2
		c0-2.4-0.5-4.4-1.4-6.2c-1.1-2.1-2.8-3.2-5-3.4c-2-0.2-3.5,0.6-4.7,2.4c-1,1.5-1.6,3.3-1.7,5.5c-0.1,0.5-0.1,0.9-0.1,1.4
		c0,2.5,0.5,4.6,1.4,6.4c1.2,2.2,2.9,3.2,5.1,3.2c1.9,0,3.5-0.9,4.7-2.8C40.5,31,41.1,29.2,41.3,27.1z"/>
	<path class="st0" d="M64.3,16.9c0,1.5-0.7,2.2-2.1,2.2c-0.6,0-1.2-0.3-1.9-0.8c-0.7-0.5-1.2-0.8-1.4-0.8c-0.7,0-1.5,0.5-2.2,1.4
		c-0.7,1-1.1,1.8-1.1,2.6v10.3c0,1.5,0.3,2.5,0.8,2.8c0.4,0.3,1.4,0.5,3,0.7c0.3,0.1,0.4,0.2,0.4,0.4c0,0.3-0.1,0.4-0.4,0.4H48.1
		c-0.3,0-0.4-0.1-0.4-0.3c0-0.3,0.2-0.4,0.4-0.4c1.5-0.2,2.4-0.5,2.8-1c0.4-0.5,0.6-1.4,0.6-2.6V19c0-1.4-0.5-2.2-1.4-2.2
		c-0.3,0-0.5,0-0.8,0.1c-0.6,0.3-1,0.4-1.1,0.4c-0.3,0-0.5-0.2-0.5-0.5c0-0.2,0.1-0.3,0.3-0.5c1.4-1.2,2.9-1.8,4.5-1.8
		c1.9,0,2.9,1.2,3,3.6l0,0.6c2.2-2.9,4.2-4.4,6-4.4c0.8,0,1.4,0.2,2,0.7C64,15.5,64.3,16.1,64.3,16.9z"/>
	<path class="st0" d="M77.7,33.6c-0.8,1.1-1.7,1.9-2.7,2.3c-1,0.5-1.9,0.7-2.8,0.7c-3,0-4.4-2-4.4-6.1V17.4h-2.7
		c-0.5-0.2-0.5-0.4-0.1-0.7c1.8-1.1,3.8-3.4,6-7c0.1-0.2,0.3-0.4,0.5-0.4c0.4,0,0.5,0.1,0.5,0.4v5.9h4.6c0.1,0,0.2,0.1,0.3,0.2
		c0,0.2,0,0.3,0,0.4c-0.6,0.7-1.5,1-2.7,1H72v12.5c0,2.8,0.9,4.2,2.6,4.2c1,0,1.8-0.4,2.5-1.2c0.1-0.2,0.2-0.2,0.3-0.2
		c0.3,0,0.4,0.2,0.4,0.5C77.8,33.4,77.8,33.5,77.7,33.6z"/>
	<path class="st0" d="M100.4,34.4c-0.3,0.4-0.8,0.8-1.3,1.2c-0.9,0.6-1.9,0.9-2.9,0.9c-2.1,0-3.2-1.2-3.3-3.6
		c-2.9,2.4-5.5,3.6-7.6,3.6c-1.5,0-2.7-0.5-3.8-1.4c-1-1-1.5-2.2-1.5-3.7c0-2.3,1.2-4.2,3.7-5.7c1.5-0.9,4.5-2.2,9.2-3.9v-2
		c0-1.6-0.2-2.7-0.5-3.4c-0.5-1.1-1.7-1.6-3.5-1.6c-0.9,0-1.7,0.2-2.3,0.5c-0.9,0.5-1.3,1.1-1.3,1.8c0,0.2,0,0.5,0.1,0.9
		c0.1,0.4,0.1,0.7,0.1,0.9c0,1.4-0.7,2.1-2.2,2.1c-0.6,0-1.2-0.2-1.6-0.6c-0.4-0.4-0.7-0.9-0.7-1.6c0-1.7,1-3.1,3.1-4.1
		c1.7-0.8,3.5-1.3,5.4-1.3c3.3,0,5.5,1,6.6,3.1c0.6,1.1,0.9,2.7,0.9,4.8V31c0,0.9,0.1,1.6,0.2,1.9c0.2,0.6,0.7,0.9,1.3,0.9
		c0.5,0,1-0.1,1.3-0.3c0.2-0.1,0.4-0.2,0.5-0.2c0.3,0,0.4,0.1,0.4,0.4C100.8,33.9,100.7,34.2,100.4,34.4z M92.9,30.6V23
		c-5.6,1.8-8.4,4-8.4,6.9c0,1.1,0.3,2,1,2.7c0.7,0.7,1.6,1.1,2.7,1.1c1,0,2-0.3,3-0.8C92.3,32.3,92.9,31.5,92.9,30.6z"/>
	<path class="st0" d="M111.2,34.9c-0.3,0.4-0.7,0.8-1.3,1.2c-0.9,0.6-2,0.9-3.2,0.9c-2,0-2.9-1.2-2.9-3.7V10.5c0-0.4-0.3-0.5-1-0.5
		c-0.3,0-0.5,0-0.8,0c-0.2,0-0.3,0-0.3-0.2c0-0.2,0-0.3,0.1-0.4c1.4-0.8,2.5-1.5,3.2-2c0.5-0.3,1.2-0.9,2.2-1.6
		c0.2-0.2,0.3-0.2,0.5-0.1c0.2,0.1,0.3,0.2,0.3,0.4v26.4c0,0.6,0.1,1,0.2,1.3c0.2,0.3,0.6,0.5,1.2,0.5c0.5,0,1-0.1,1.3-0.3
		c0.2-0.1,0.4-0.2,0.5-0.2c0.3,0,0.4,0.1,0.4,0.4C111.6,34.4,111.5,34.6,111.2,34.9z"/>
	<path class="st0" d="M121.4,9.1l-1.2,0.3c-0.2,0-0.4,0.1-0.7,0.1c-0.7,0-1.1-0.3-1.1-0.8c0-0.4,0.2-0.7,0.7-1.1
		c0.5-0.3,1.3-0.7,2.5-1.1c3.1-1.1,5.7-1.8,8-2.2c2.3-0.4,4.6-0.6,7-0.6c2.9,0,5,0.4,6.4,1.1c0.7,0.4,1.3,1,1.7,1.8s0.7,1.7,0.7,2.6
		c0,1.8-0.6,3.6-1.9,5.4c-1.3,1.8-3.1,3.4-5.6,5c-3.4,2.1-7,3.6-10.9,4.4c-2.1,0.4-3.8,0.7-5,0.7c-0.5,0-0.8,0.1-1,0.2
		s-0.4,0.6-0.7,1.4c-0.9,2.4-1.5,4.4-1.7,5.8c-0.2,0.8-0.3,1.4-0.5,1.6c-0.2,0.2-0.7,0.6-1.5,1c-2,1.1-3.3,1.6-4,1.6
		c-0.5,0-0.7-0.3-0.7-1c0-1.2,0.7-3.7,2.1-7.4c1.4-3.7,3-7.3,4.8-10.9l3.1-6.1c0.4-0.8,0.6-1.3,0.6-1.4c0-0.3-0.2-0.4-0.5-0.4
		C121.9,9,121.7,9.1,121.4,9.1z M134.6,6.8c-1.1,0-2.2,0.1-3.2,0.3c-1,0.2-1.6,0.4-1.9,0.6c-0.2,0.2-0.5,0.5-0.7,1
		c-0.3,0.5-1.1,1.9-2.4,4.5c-1.6,3.3-2.6,5.2-2.9,5.9s-0.5,1.1-0.5,1.4c0,0.4,0.4,0.6,1.1,0.6c1.7,0,3.6-0.4,5.7-1.1
		c2.1-0.7,3.9-1.6,5.4-2.7c1.3-1,2.3-2.1,3.1-3.3c0.8-1.2,1.2-2.4,1.2-3.5C139.5,8,137.9,6.8,134.6,6.8z"/>
	<path class="st0" d="M153.3,16.7l-2,3.8c-3.3,6.4-5.1,10.6-5.4,12.7c-0.1,0.5-0.6,1.1-1.3,1.6c-1.6,1.1-2.7,1.7-3.3,1.7
		c-0.3,0-0.6-0.1-0.8-0.4c-0.2-0.2-0.3-0.6-0.3-1c0-1.7,1.3-5.1,3.8-10.2l3.1-6.3c0.4-0.8,0.7-1.6,1.1-2.4c0.3-0.6,0.6-1.1,0.8-1.3
		c0.2-0.2,0.6-0.5,1.1-0.6c1.5-0.5,2.5-0.8,2.9-0.8c0.7,0,1,0.4,1,1.1C154,15,153.8,15.6,153.3,16.7z M156.7,2.2
		c0.3,0,0.6,0.1,0.8,0.3c0.2,0.2,0.3,0.4,0.3,0.7c-0.1,0.7-0.3,1.5-0.8,2.4c-0.5,0.9-1,1.5-1.5,2c-0.5,0.4-1.2,0.8-2.1,1.2
		c-0.9,0.4-1.6,0.6-2,0.6c-0.5,0-0.8-0.3-0.8-0.8c0-0.5,0.3-1.3,0.8-2.3c0.5-1,1.1-1.8,1.6-2.3c0.4-0.4,1-0.7,1.8-1.1
		C155.6,2.4,156.2,2.2,156.7,2.2z"/>
	<path class="st0" d="M170.4,19.9l-2.6,2.3c-1.1,0.9-1.7,1.5-2,1.8c-0.3,0.3-0.4,0.5-0.4,0.7c0,0.3,0.4,1.4,1.2,3.2
		c0.8,1.8,1.7,3.6,2.6,5.3c0.1,0.2,0.2,0.4,0.2,0.5c0,0.3-0.5,0.9-1.5,1.6c-1.1,0.8-1.7,1.2-2,1.2c-0.8,0-2-2.3-3.9-7
		c-0.4-1-0.7-1.4-0.9-1.4c-0.1,0-0.3,0.1-0.5,0.3l-2.7,2.6c-2.2,2.1-3.7,3.4-4.5,4c-0.7,0.4-1.4,0.8-2.2,1.1c-0.8,0.3-1.5,0.4-2,0.4
		c-0.6,0-0.8-0.2-0.8-0.7c0-0.2,0.1-0.4,0.2-0.6c0.2-0.2,0.6-0.5,1.2-0.9c1.3-0.9,4.3-3.6,8.9-8.1c0.4-0.4,0.6-0.6,0.7-0.7
		c0.4-0.4,0.6-0.7,0.6-1c0-0.2-0.2-0.7-0.5-1.4c-0.4-1-0.8-2.3-1.2-3.8c-0.4-1.6-0.6-2.6-0.6-3.1c0-0.4,0.2-0.8,0.7-1.1
		c0.4-0.3,0.9-0.6,1.6-0.8c0.7-0.3,1.2-0.4,1.5-0.4c0.3,0,0.6,0.1,0.7,0.3c0.1,0.2,0.3,0.7,0.5,1.6c0.1,0.5,0.3,1.2,0.5,1.9l0.9,2.8
		c0.1,0.4,0.3,0.6,0.5,0.6c0.2,0,0.7-0.4,1.7-1.2c1-0.8,2-1.8,3.1-2.9c1.1-1.1,2-1.8,2.7-2c0.4-0.1,1-0.3,2-0.4
		c0.9-0.2,1.6-0.2,2-0.2c0.5,0,0.7,0.2,0.7,0.5c0,0.2-0.3,0.5-0.9,0.9c-1.1,0.8-2.4,1.9-4,3.3L170.4,19.9z"/>
</g>
</svg>
